<svg xmlns="http://www.w3.org/2000/svg" viewBox="0 0 77.52 78.41"><defs><style>.cls-1{fill:#ffe600;}.cls-2,.cls-3,.cls-4{fill:none;stroke:#000;stroke-width:4px;}.cls-2,.cls-3{stroke-miterlimit:10;}.cls-3,.cls-4{stroke-linecap:round;}.cls-4{stroke-linejoin:round;}.cls-5{opacity:0.27;}</style></defs><title>资源 1</title><g id="图层_2" data-name="图层 2"><g id="作品集封面"><path class="cls-1" d="M25.29,75.62V47A11.64,11.64,0,0,1,36.93,35.34h0A11.64,11.64,0,0,1,48.58,47V75.62"/><path class="cls-2" d="M2,75.62V47A11.64,11.64,0,0,1,13.64,35.34h0A11.64,11.64,0,0,1,25.29,47V75.62"/><path class="cls-3" d="M25.29,75.62V47A11.64,11.64,0,0,1,36.93,35.34h0A11.64,11.64,0,0,1,48.58,47V75.62"/><circle cx="75.2" cy="76.08" r="2.32"/><polyline class="cls-4" points="2 2 2 75.61 2 2 45.46 2 2 75.61 65.2 75.61"/><polyline class="cls-5" points="2 2 2 75.61 2 2 45.46 2 2 75.61"/></g></g></svg>